<?xml version="1.0" standalone="no"?>
<!DOCTYPE svg PUBLIC "-//W3C//DTD SVG 20010904//EN"
 "http://www.w3.org/TR/2001/REC-SVG-20010904/DTD/svg10.dtd">
<svg version="1.0" xmlns="http://www.w3.org/2000/svg"
 width="1000.000000pt" height="667.000000pt" viewBox="0 0 1000.000000 667.000000"
 preserveAspectRatio="xMidYMid meet">

<g transform="translate(0.000000,667.000000) scale(0.100000,-0.100000)"
fill="#000000" stroke="none">
<path d="M4405 5285 c-157 -29 -350 -106 -363 -144 -2 -7 15 1 38 18 40 29
137 71 163 71 7 0 -18 -13 -55 -29 -36 -16 -80 -38 -97 -51 -18 -12 -39 -23
-49 -24 -31 -5 -43 -46 -26 -95 8 -24 24 -100 34 -169 26 -169 41 -233 53
-225 6 3 7 1 3 -5 -10 -17 42 -108 81 -142 34 -30 88 -50 136 -50 15 0 56 -9
90 -21 88 -30 195 -24 252 14 22 15 56 38 76 51 36 25 69 66 69 88 1 30 38 58
77 58 l38 -1 -59 -54 c-33 -30 -57 -55 -53 -55 9 0 168 59 203 76 21 10 31 21
27 30 -4 10 3 14 22 14 20 0 26 4 23 18 -3 15 -18 17 -134 17 -145 0 -177 11
-187 62 -3 15 -1 94 5 175 13 169 4 232 -42 296 -61 85 -156 108 -325 77z
m274 -38 c24 -16 48 -44 62 -74 22 -43 24 -59 22 -168 -2 -66 -6 -136 -11
-155 -6 -22 -7 20 -4 115 4 150 4 150 -25 204 -34 65 -90 100 -162 102 -36 1
-41 3 -21 8 37 11 95 -3 139 -32z m-29 -113 c50 -57 55 -94 41 -280 -6 -90 -9
-169 -6 -174 11 -17 -33 -98 -80 -149 -51 -54 -46 -53 -174 -32 -36 6 -67 9
-69 7 -2 -3 9 -11 25 -20 15 -8 23 -15 17 -16 -23 0 -109 66 -141 108 -62 82
-111 296 -94 414 4 32 10 60 12 62 19 17 130 71 190 92 146 51 227 47 279 -12z
m77 -206 c-3 -7 -5 -2 -5 12 0 14 2 19 5 13 2 -7 2 -19 0 -25z m-10 -115 c-3
-10 -5 -2 -5 17 0 19 2 27 5 18 2 -10 2 -26 0 -35z m13 -213 c-6 -11 -13 -20
-16 -20 -2 0 0 9 6 20 6 11 13 20 16 20 2 0 0 -9 -6 -20z m-539 -57 c13 -16
12 -17 -3 -4 -17 13 -22 21 -14 21 2 0 10 -8 17 -17z"/>
<path d="M4473 4847 c-47 -102 -181 -161 -240 -105 -13 12 -23 17 -23 11 0
-29 43 -141 63 -163 26 -29 85 -60 117 -60 28 0 70 22 95 51 11 12 13 19 6 14
-8 -5 -38 -8 -65 -7 -28 0 -66 -3 -83 -8 -31 -8 -33 -7 -33 16 0 14 11 36 25
49 29 30 95 34 152 10 46 -19 53 -11 53 68 0 60 -16 113 -42 134 -12 11 -17 9
-25 -10z"/>
<path d="M6619 4821 c-44 -14 -69 -31 -69 -46 0 -8 -5 -15 -11 -15 -8 0 -8 -4
1 -15 7 -9 9 -26 5 -46 -5 -20 -3 -34 5 -39 6 -4 47 11 90 33 76 39 79 40 104
24 14 -9 37 -37 51 -61 14 -24 35 -46 46 -49 19 -5 19 -7 -10 -85 -20 -55 -26
-84 -19 -95 12 -23 22 -21 69 10 26 17 56 27 84 28 52 3 109 41 119 80 7 28
31 34 40 10 3 -9 -9 -31 -30 -55 -38 -42 -33 -50 16 -25 53 27 115 131 122
205 l3 35 -205 53 c-209 54 -353 72 -411 53z m385 -62 c87 -22 163 -42 168
-45 19 -12 -15 -22 -40 -13 -16 6 -29 6 -38 -2 -10 -8 -18 -8 -26 -1 -7 5 -33
12 -58 16 -25 3 -63 8 -86 12 l-41 6 -17 -46 c-10 -25 -21 -46 -26 -46 -4 0
-20 20 -34 45 -29 48 -51 65 -88 65 -21 1 -21 2 -5 11 9 6 14 15 11 21 -12 19
20 29 71 22 28 -3 121 -24 209 -45z m-49 -239 c8 0 26 16 41 35 24 32 54 47
54 27 0 -14 -29 -69 -43 -80 -28 -23 -49 -17 -68 18 -10 19 -19 46 -18 60 1
17 4 11 11 -17 5 -26 15 -43 23 -43z"/>
<path d="M6494 4485 c-26 -18 -56 -103 -78 -219 -9 -49 -18 -92 -21 -94 -2 -3
-24 1 -49 7 -27 6 -136 11 -271 11 -225 0 -227 0 -270 26 -64 37 -134 41 -244
14 -116 -28 -141 -21 -159 46 -15 56 -82 130 -142 157 -54 24 -136 25 -199 3
-24 -9 -64 -16 -88 -16 -36 0 -46 4 -50 20 -8 28 -77 36 -131 15 -47 -19 -138
-112 -148 -151 -4 -15 -21 -32 -43 -44 -54 -27 -116 -92 -172 -178 -27 -43
-49 -81 -49 -85 0 -5 -16 -29 -35 -54 -19 -25 -32 -50 -29 -55 4 -6 10 -5 14
3 7 10 11 10 24 0 15 -13 36 14 133 174 23 38 66 54 95 36 11 -7 17 -8 13 -2
-11 19 11 12 31 -10 14 -15 19 -36 18 -75 0 -44 -5 -60 -30 -91 -25 -31 -38
-38 -73 -41 -47 -4 -81 17 -81 49 0 10 -5 21 -10 24 -6 4 -9 3 -8 -2 4 -11
-42 -83 -52 -83 -5 0 -14 -10 -20 -22 -10 -21 -10 -22 4 -5 19 24 37 14 98
-51 39 -41 49 -48 59 -36 6 8 47 33 91 56 44 24 91 55 104 71 12 15 26 27 30
27 5 0 22 -13 39 -29 l30 -30 98 49 c53 27 115 55 137 61 32 10 39 16 35 30
-3 10 -7 45 -8 78 -1 54 2 64 28 90 50 53 131 64 191 25 28 -19 33 -31 49
-122 28 -152 29 -195 7 -239 -29 -55 -55 -70 -193 -105 -65 -17 -119 -34 -119
-38 0 -22 345 -120 425 -120 14 0 36 -7 49 -15 21 -14 30 -13 112 16 64 22
100 30 129 26 22 -2 122 -34 223 -69 156 -55 185 -63 200 -52 22 17 32 17 32
0 0 -8 7 -16 15 -19 33 -13 213 31 247 60 19 17 52 10 46 -10 -2 -6 -19 -18
-36 -26 -23 -11 -31 -20 -27 -32 5 -14 -2 -18 -45 -21 -28 -1 -55 1 -59 5 -5
5 -26 7 -47 5 l-39 -3 38 -20 c34 -17 44 -18 104 -8 37 7 79 21 96 33 21 16
32 19 40 11 19 -19 -20 -48 -89 -67 -52 -14 -62 -20 -53 -30 24 -29 118 -3
203 55 64 45 73 67 47 119 -19 38 -140 241 -176 295 l-16 25 50 11 c59 13 113
45 134 81 8 14 31 79 51 145 20 66 48 143 62 172 31 62 41 122 24 152 -12 23
-95 81 -114 81 -6 0 7 -11 29 -23 41 -24 41 -23 33 -94 -4 -28 -3 -28 -39 -2
-16 11 -52 29 -81 39 -29 10 -45 19 -35 19 9 1 18 7 19 14 0 6 2 17 3 22 2 6
3 15 4 21 0 6 13 10 29 7 23 -3 24 -2 7 6 -32 15 -128 13 -151 -4z m172 -126
c23 -11 50 -29 60 -42 17 -20 18 -21 1 -7 -16 12 -20 12 -27 0 -5 -8 -7 -17
-4 -21 2 -4 -1 -20 -7 -36 -6 -15 -16 -46 -20 -68 -5 -22 -12 -51 -15 -65 -3
-13 -12 -39 -21 -58 l-16 -33 -116 1 c-64 1 -138 -2 -166 -5 -27 -3 -66 -7
-85 -9 -37 -5 -111 -14 -170 -21 -19 -3 -56 -7 -81 -10 l-46 -4 -13 42 c-7 23
-21 59 -31 79 -21 41 -23 52 -11 44 5 -3 40 -1 77 5 67 9 341 13 398 5 15 -2
27 0 27 4 0 4 18 3 41 -2 23 -6 36 -14 29 -18 -6 -4 1 -7 17 -8 15 0 37 -1 48
-3 18 -4 21 3 28 81 4 47 8 106 10 132 2 44 3 47 27 41 14 -3 44 -14 66 -24z
m-1852 -35 c20 -8 20 -17 1 -82 -17 -57 -35 -65 -59 -30 -23 32 -20 59 9 91
29 30 27 29 49 21z m532 -19 c-4 -14 -2 -25 3 -25 5 0 7 -9 4 -20 -7 -25 -7
-25 -60 1 -51 25 -54 35 -13 44 17 4 28 11 24 16 -3 5 7 9 21 9 24 0 26 -3 21
-25z m-40 -91 c30 -15 74 -68 74 -90 0 -5 -9 5 -20 23 -22 37 -58 63 -103 73
-25 6 -27 8 -9 9 13 1 39 -6 58 -15z m544 -124 c-13 -9 -13 -10 1 -10 8 0 20
5 26 11 8 8 16 4 29 -16 17 -26 17 -28 -1 -41 -27 -20 -110 -18 -131 4 -17 16
-16 17 14 20 21 2 29 7 26 17 -3 7 2 15 13 18 31 8 39 7 23 -3z m-960 -15 c13
-16 6 -35 -15 -35 -16 0 -38 34 -28 44 11 10 30 7 43 -9z m1480 -265 c26 -14
40 -71 33 -131 -6 -51 -26 -75 -89 -107 -21 -11 -21 -9 -17 31 6 54 -37 142
-85 174 l-33 22 48 6 c26 4 53 8 58 10 21 7 67 5 85 -5z m-395 -70 c-43 -34
-48 -35 -65 -15 -10 12 -8 16 11 23 13 5 31 12 39 15 8 3 23 6 34 6 14 1 9 -7
-19 -29z"/>
<path d="M5325 4310 c-3 -5 -1 -10 4 -10 6 0 11 5 11 10 0 6 -2 10 -4 10 -3 0
-8 -4 -11 -10z"/>
<path d="M5872 4065 c-22 -12 -27 -24 -15 -35 4 -3 3 1 -1 8 -4 7 -1 12 7 12
8 0 20 7 27 15 14 17 13 17 -18 0z"/>
<path d="M4600 4007 c0 -8 -11 -35 -24 -60 -24 -48 -21 -60 7 -29 16 17 35
102 23 102 -3 0 -6 -6 -6 -13z"/>
<path d="M2030 3826 c-45 -13 -110 -43 -110 -51 0 -2 12 0 26 6 15 5 29 8 31
5 9 -9 -18 -45 -39 -53 -16 -5 2 -9 62 -14 102 -7 174 -38 249 -105 56 -50 84
-91 117 -173 26 -62 32 -57 9 8 -17 49 -13 65 28 109 41 43 61 41 86 -10 19
-40 21 -41 21 -15 0 80 -140 252 -213 262 -12 1 -56 12 -97 24 -84 24 -106 25
-170 7z"/>
<path d="M3840 3806 c0 -2 7 -9 15 -16 9 -7 15 -8 15 -2 0 5 -7 12 -15 16 -8
3 -15 4 -15 2z"/>
<path d="M3753 3761 c-23 -11 -47 -30 -54 -43 l-12 -23 25 23 c26 24 54 29 60
11 4 -11 -23 -126 -33 -144 -10 -17 2 -95 15 -95 22 0 50 26 38 34 -7 4 -12
34 -12 72 0 53 3 66 20 76 11 7 20 18 20 25 0 19 21 27 31 12 7 -11 9 -10 9 4
0 18 -42 67 -57 67 -4 0 -27 -9 -50 -19z"/>
<path d="M3910 3770 c8 -5 20 -10 25 -10 6 0 3 5 -5 10 -8 5 -19 10 -25 10 -5
0 -3 -5 5 -10z"/>
<path d="M4788 3768 c-27 -9 -27 -10 -13 -38 19 -36 19 -54 0 -70 -21 -17 -54
-3 -76 33 -11 19 -19 25 -19 16 0 -9 11 -28 25 -43 14 -15 25 -31 25 -36 0 -5
14 -4 30 2 17 6 44 8 60 4 60 -11 77 68 28 122 -24 25 -22 24 -60 10z"/>
<path d="M3950 3756 c0 -2 8 -10 18 -17 15 -13 16 -12 3 4 -13 16 -21 21 -21
13z"/>
<path d="M4630 3736 c0 -8 -6 -17 -12 -19 -10 -4 -10 -6 -1 -6 7 -1 17 8 23
19 7 14 7 20 0 20 -5 0 -10 -6 -10 -14z"/>
<path d="M4518 3703 c7 -3 16 -2 19 1 4 3 -2 6 -13 5 -11 0 -14 -3 -6 -6z"/>
<path d="M4468 3693 c7 -3 16 -2 19 1 4 3 -2 6 -13 5 -11 0 -14 -3 -6 -6z"/>
<path d="M4417 3673 c-11 -3 -16 -11 -13 -19 7 -19 -11 -18 -21 1 -7 12 -15
10 -46 -12 -20 -14 -37 -32 -37 -39 0 -16 -27 -31 -90 -50 -38 -11 -52 -22
-64 -46 -18 -34 -13 -68 9 -68 8 0 43 11 77 24 154 57 278 88 341 83 l62 -5
-35 17 c-29 13 -37 25 -50 69 l-15 52 -50 -1 c-27 -1 -58 -3 -68 -6z m113 -35
c0 -7 7 -26 15 -42 17 -33 12 -45 -13 -30 -19 12 -30 84 -13 84 6 0 11 -6 11
-12z"/>
<path d="M4600 3674 c0 -17 43 -77 60 -82 9 -3 4 8 -11 24 -15 16 -31 38 -37
49 -6 11 -12 15 -12 9z"/>
<path d="M4898 3673 c6 -2 18 -2 25 0 6 3 1 5 -13 5 -14 0 -19 -2 -12 -5z"/>
<path d="M3842 3525 c-27 -42 -62 -66 -110 -76 -35 -6 -35 -7 -7 -8 17 0 44 8
61 18 31 19 91 88 83 96 -2 2 -14 -12 -27 -30z"/>
<path d="M3937 3467 c-35 -47 -79 -63 -128 -50 -21 5 -36 6 -33 2 2 -4 -5 -13
-17 -20 -14 -7 -24 -8 -28 -1 -18 29 -212 -22 -272 -72 -32 -27 -71 -42 -87
-32 -5 3 -2 -15 6 -39 11 -34 23 -50 56 -68 22 -14 57 -24 76 -25 28 0 31 2
15 8 -11 5 -30 9 -41 9 -49 2 -99 76 -68 101 14 13 19 7 29 -37 3 -18 10 -33
15 -33 4 0 3 15 -2 34 -6 19 -8 41 -5 49 9 23 44 9 57 -23 13 -32 77 -96 67
-67 -6 15 -3 17 14 12 15 -5 29 0 47 18 15 13 72 41 127 63 55 21 105 41 110
45 6 3 19 3 30 -2 36 -14 76 -9 107 12 16 12 27 24 24 27 -4 3 11 13 31 22
l38 17 -40 17 c-23 10 -58 16 -81 14 -41 -3 -41 -3 -26 20 24 37 7 36 -21 -1z
m-378 -199 c5 -14 17 -22 33 -22 17 -1 24 3 21 11 -4 9 0 11 11 7 20 -8 20
-18 1 -34 -11 -10 -19 -10 -27 -2 -6 6 -16 8 -22 6 -10 -4 -36 34 -36 51 0 13
12 2 19 -17z"/>
<path d="M5177 3396 c-97 -34 -185 -70 -195 -80 -16 -18 -16 -18 8 -2 14 8 99
41 189 71 152 52 210 75 186 74 -5 0 -90 -28 -188 -63z"/>
<path d="M2393 3315 c0 -27 2 -38 4 -22 2 15 2 37 0 50 -2 12 -4 0 -4 -28z"/>
<path d="M3317 3283 c-10 -9 -9 -23 2 -23 5 0 11 7 15 15 5 15 -5 20 -17 8z"/>
<path d="M3345 3270 c-3 -5 -1 -10 4 -10 6 0 11 5 11 10 0 6 -2 10 -4 10 -3 0
-8 -4 -11 -10z"/>
<path d="M1654 3160 c23 -91 34 -159 30 -177 -3 -11 -23 -30 -44 -42 l-39 -22
-14 23 c-8 13 -22 37 -31 53 -8 17 -15 26 -15 20 -1 -19 106 -212 169 -306
142 -212 368 -489 398 -489 33 0 131 90 205 187 99 132 226 323 214 323 -3 0
-27 -35 -53 -77 -92 -148 -282 -389 -262 -332 4 10 -9 35 -34 65 -192 232
-389 518 -475 688 -30 61 -52 100 -49 86z"/>
<path d="M2352 3160 c-18 -29 -15 -38 4 -12 9 13 14 25 12 27 -2 2 -9 -5 -16
-15z"/>
<path d="M7172 2963 l-2 -112 33 -21 32 -22 -27 24 c-26 22 -27 28 -31 133
l-3 110 -2 -112z"/>
<path d="M7240 2806 c0 -3 20 -19 45 -36 25 -17 45 -29 45 -26 0 3 -20 19 -45
36 -25 17 -45 29 -45 26z"/>
<path d="M5565 2759 c-55 -17 -131 -39 -169 -50 l-69 -20 -179 46 c-200 51
-250 54 -363 25 -153 -39 -205 -94 -205 -219 0 -65 14 -103 48 -135 17 -14 30
-17 64 -11 66 10 148 35 148 44 0 11 115 51 145 51 12 0 68 -16 126 -35 57
-20 226 -74 374 -121 149 -48 272 -89 275 -93 3 -3 12 -6 20 -7 8 -1 24 -4 36
-8 30 -9 88 32 94 69 4 20 13 31 33 38 16 5 30 7 33 5 2 -3 -8 -33 -22 -67
-14 -35 -23 -66 -20 -69 3 -2 10 8 16 24 6 16 36 87 67 157 47 107 54 130 42
139 -10 6 -7 7 11 2 14 -3 27 -8 29 -10 2 -2 -19 -56 -48 -120 -28 -64 -50
-118 -48 -120 2 -3 13 17 24 43 l20 48 211 68 c127 41 222 77 237 90 14 13 27
37 30 57 l5 35 -10 -31 c-5 -17 -18 -38 -28 -47 -16 -15 -23 -15 -87 2 -39 10
-181 55 -317 100 -135 45 -262 84 -281 86 -49 6 -79 19 -101 44 -24 26 -20 26
-141 -10z m-417 -51 c87 -22 145 -52 150 -80 4 -22 -38 -33 -203 -52 -174 -20
-235 -6 -235 53 0 38 26 70 74 92 47 22 81 20 214 -13z m677 -58 c22 -11 29
-17 15 -13 -14 4 -38 8 -55 9 -39 3 -37 2 -30 14 9 14 25 12 70 -10z m0 -49
c-14 -12 -107 -42 -113 -36 -7 7 -3 9 53 27 60 19 73 21 60 9z m260 -1 c3 -5
2 -10 -4 -10 -5 0 -13 5 -16 10 -3 6 -2 10 4 10 5 0 13 -4 16 -10z"/>
<path d="M2540 2760 c-6 -11 -8 -20 -6 -20 3 0 10 9 16 20 6 11 8 20 6 20 -3
0 -10 -9 -16 -20z"/>
<path d="M7370 2716 c0 -3 20 -19 45 -36 25 -17 45 -29 45 -26 0 3 -20 19 -45
36 -25 17 -45 29 -45 26z"/>
<path d="M7500 2626 c0 -2 14 -14 30 -26 17 -12 30 -19 30 -16 0 2 -13 14 -30
26 -16 12 -30 19 -30 16z"/>
<path d="M3671 2573 c-21 -4 -19 -7 25 -37 78 -53 175 -163 221 -251 77 -149
171 -465 138 -465 -9 0 -87 51 -128 83 -21 16 -83 85 -138 153 -138 170 -218
227 -445 318 -132 54 -140 54 -287 6 -70 -22 -127 -45 -127 -49 0 -8 70 -41
117 -55 21 -7 19 -10 -31 -60 -146 -143 -185 -381 -104 -636 63 -199 199 -360
356 -421 76 -30 222 -33 299 -6 118 41 222 150 264 276 l20 58 87 -32 c48 -18
202 -65 342 -105 140 -39 266 -74 280 -78 19 -6 26 -16 31 -44 11 -69 27 -79
233 -138 140 -40 152 -42 201 -31 51 12 53 11 85 -19 17 -16 46 -34 63 -38 28
-7 34 -17 68 -104 82 -218 216 -353 384 -388 148 -31 299 28 385 148 64 88 84
165 85 312 0 69 -2 143 -5 165 l-5 40 103 30 c85 24 100 31 83 39 -12 5 -21
18 -21 31 0 62 -159 134 -539 246 -136 40 -196 46 -307 33 l-51 -6 22 -42 c13
-25 37 -50 61 -63 36 -20 40 -21 46 -5 4 11 7 3 7 -22 l1 -38 -37 8 c-21 4
-58 10 -81 13 l-44 6 23 29 c43 55 25 65 -283 158 -410 123 -522 177 -606 288
-54 72 -109 162 -142 230 -22 45 -22 45 -73 44 -50 -1 -52 0 -79 42 -27 44
-53 60 -41 27 4 -11 -5 -6 -23 12 -39 40 -65 35 -59 -11 12 -98 -43 36 -66
160 -8 43 -16 60 -30 63 -12 3 -19 14 -19 28 0 12 -8 29 -17 36 -10 8 -14 9
-10 2 4 -6 2 -15 -4 -19 -7 -4 -10 -3 -7 2 3 5 2 18 -3 29 -5 12 -6 -13 -2
-57 3 -43 3 -78 0 -78 -8 0 -85 82 -134 143 -21 26 -42 46 -48 46 -5 -1 -21
-4 -34 -6z m-208 -490 c90 -49 163 -154 202 -287 13 -43 16 -84 13 -155 -3
-83 -8 -103 -33 -151 -57 -105 -157 -151 -250 -115 -96 36 -207 169 -246 294
-42 136 -17 321 54 390 69 66 165 75 260 24z m1942 -714 c4 -6 5 -12 3 -14 -7
-8 -78 7 -78 16 0 13 68 11 75 -2z m275 -19 c0 -13 -28 -25 -38 -16 -3 4 0 11
8 16 20 13 30 12 30 0z m145 -31 c66 -79 105 -197 105 -315 0 -106 -25 -178
-80 -228 -89 -80 -194 -61 -288 52 -84 103 -122 200 -122 314 0 95 3 99 62 86
l47 -11 -4 -66 c-4 -61 -4 -62 4 -19 12 63 18 71 50 63 75 -17 107 -46 75 -69
-13 -10 -11 -12 12 -11 21 0 29 -6 34 -25 7 -26 -4 -50 -23 -50 -6 0 -2 6 8
14 18 13 17 14 -8 14 -33 0 -34 -12 -5 -32 21 -15 21 -19 10 -48 -7 -18 -14
-37 -15 -43 -2 -12 34 -7 48 6 15 14 13 175 -2 190 -10 10 -7 17 13 36 15 13
27 23 29 21 1 -2 12 -21 24 -43 l21 -40 -7 45 c-6 41 -5 44 10 31 10 -7 17
-10 17 -7 0 9 -47 96 -68 126 -9 13 -11 21 -4 16 7 -4 12 -1 12 8 0 25 16 19
45 -15z"/>
<path d="M3247 2054 c-21 -14 -36 -28 -34 -31 3 -3 19 5 35 17 16 12 54 25 83
30 l54 8 -50 1 c-39 1 -59 -5 -88 -25z"/>
<path d="M3299 1904 l-24 -25 30 15 c40 21 73 20 120 -4 l40 -21 -33 31 c-43
40 -97 42 -133 4z"/>
<path d="M3165 1790 c4 -6 11 -8 16 -5 14 9 11 15 -7 15 -8 0 -12 -5 -9 -10z"/>
<path d="M3390 1719 c0 -5 9 -9 20 -9 11 0 20 2 20 4 0 2 -9 6 -20 9 -11 3
-20 1 -20 -4z"/>
<path d="M3598 1663 c7 -3 16 -2 19 1 4 3 -2 6 -13 5 -11 0 -14 -3 -6 -6z"/>
<path d="M3304 1551 c16 -17 48 -38 71 -47 39 -14 45 -14 74 0 39 20 39 24 1
18 -45 -6 -94 6 -136 34 l-39 26 29 -31z"/>
<path d="M5460 1130 c0 -5 5 -10 11 -10 5 0 7 5 4 10 -3 6 -8 10 -11 10 -2 0
-4 -4 -4 -10z"/>
<path d="M5821 1094 c0 -11 3 -14 6 -6 3 7 2 16 -1 19 -3 4 -6 -2 -5 -13z"/>
<path d="M5560 1027 c0 -31 75 -117 102 -117 6 0 -4 10 -23 23 -18 12 -44 40
-56 62 -13 22 -23 36 -23 32z"/>
<path d="M5850 1010 c0 -5 4 -10 9 -10 6 0 13 5 16 10 3 6 -1 10 -9 10 -9 0
-16 -4 -16 -10z"/>
<path d="M5805 951 c-3 -11 -20 -32 -36 -46 -40 -33 -99 -34 -156 -1 l-43 25
16 -24 c22 -33 98 -69 130 -61 37 10 117 107 101 123 -3 2 -8 -5 -12 -16z"/>
<path d="M5670 799 c0 -5 5 -7 10 -4 6 3 10 8 10 11 0 2 -4 4 -10 4 -5 0 -10
-5 -10 -11z"/>
<path d="M7600 2556 c0 -2 14 -14 30 -26 17 -12 30 -19 30 -16 0 2 -13 14 -30
26 -16 12 -30 19 -30 16z"/>
<path d="M4752 2352 c-167 -55 -161 -43 -81 -182 27 -47 49 -91 49 -96 0 -11
135 23 268 67 73 24 74 29 32 114 -41 84 -82 140 -105 142 -11 1 -84 -20 -163
-45z"/>
<path d="M4211 2374 c-1 -15 30 -106 35 -101 2 2 -5 28 -15 58 -11 30 -20 49
-20 43z"/>
<path d="M4250 2255 c0 -5 5 -17 10 -25 5 -8 10 -10 10 -5 0 6 -5 17 -10 25
-5 8 -10 11 -10 5z"/>
<path d="M5967 2205 c-19 -41 -22 -41 -106 -15 -88 28 -87 19 0 -13 56 -21 75
-24 86 -15 17 13 46 68 41 74 -3 2 -12 -12 -21 -31z"/>
<path d="M5740 2211 c0 -14 21 -27 70 -44 25 -8 54 -18 65 -23 17 -7 18 -5 8
8 -7 8 -32 20 -55 27 -24 7 -53 19 -65 27 -13 8 -23 10 -23 5z"/>
<path d="M4270 2205 c0 -5 5 -17 10 -25 5 -8 10 -10 10 -5 0 6 -5 17 -10 25
-5 8 -10 11 -10 5z"/>
<path d="M6102 1813 c2 -4 19 -37 37 -73 l33 -65 -6 44 c-4 24 -11 52 -17 62
-9 18 -55 49 -47 32z"/>
</g>
</svg>
